<svg width="24" height="24" viewBox="0 0 24 24" fill="none" xmlns="http://www.w3.org/2000/svg">
<path d="M12 16C14.2091 16 16 14.2091 16 12C16 9.79086 14.2091 8 12 8C9.79086 8 8 9.79086 8 12C8 14.2091 9.79086 16 12 16Z" stroke="black" stroke-width="2" stroke-linecap="round" stroke-linejoin="round"/>
<path d="M16 7.99987V12.9999C16 13.7955 16.3161 14.5586 16.8787 15.1212C17.4413 15.6838 18.2043 15.9999 19 15.9999C19.7956 15.9999 20.5587 15.6838 21.1213 15.1212C21.6839 14.5586 22 13.7955 22 12.9999V11.9999C21.9999 9.7429 21.2362 7.55235 19.8333 5.7844C18.4303 4.01645 16.4705 2.77509 14.2726 2.26217C12.0747 1.74924 9.76793 1.99491 7.72734 2.95923C5.68676 3.92356 4.03239 5.54982 3.03325 7.57359C2.03411 9.59736 1.74896 11.8996 2.22416 14.106C2.69936 16.3124 3.90697 18.2931 5.65062 19.7261C7.39428 21.1592 9.57143 21.9602 11.8281 21.999C14.0847 22.0378 16.2881 21.3121 18.08 19.9399" stroke="black" stroke-width="2" stroke-linecap="round" stroke-linejoin="round"/>
</svg>
